<svg xmlns="http://www.w3.org/2000/svg" width="17" height="17" viewBox="0 0 17 17">
  <path id="download-solid" d="M7.172,0H9.828a.8.8,0,0,1,.8.8V6.375h2.912a.663.663,0,0,1,.468,1.132l-5.05,5.054a.643.643,0,0,1-.906,0L2.992,7.507A.663.663,0,0,1,3.46,6.375H6.375V.8A.8.8,0,0,1,7.172,0ZM17,12.484V16.2a.8.8,0,0,1-.8.8H.8a.8.8,0,0,1-.8-.8V12.484a.8.8,0,0,1,.8-.8H5.668l1.627,1.627a1.7,1.7,0,0,0,2.411,0l1.627-1.627H16.2A.8.8,0,0,1,17,12.484Zm-4.117,2.922a.664.664,0,1,0-.664.664A.666.666,0,0,0,12.883,15.406Zm2.125,0a.664.664,0,1,0-.664.664A.666.666,0,0,0,15.008,15.406Z"/>
</svg>
